<svg id="Warstwa_1" data-name="Warstwa 1" xmlns="http://www.w3.org/2000/svg" viewBox="0 0 56 88.42"><defs><style>.cls-1{fill:#e91764;}</style></defs><title>liquiditi</title><path class="cls-1" d="M51.58,0H4.42a4.42,4.42,0,0,0,0,8.84H51.58a4.42,4.42,0,1,0,0-8.84Zm0,5.89H4.42A1.47,1.47,0,0,1,4.42,3H51.58a1.47,1.47,0,0,1,0,2.94Z"/><path class="cls-1" d="M51.58,79.58H4.42a4.42,4.42,0,0,0,0,8.84H51.58a4.42,4.42,0,0,0,0-8.84Zm0,5.89H4.42a1.47,1.47,0,0,1,0-2.94H51.58a1.47,1.47,0,0,1,0,2.94Z"/><path class="cls-1" d="M38.5,38.74a39.37,39.37,0,0,0,11.61-28V7.37a1.48,1.48,0,0,0-1.48-1.48H7.37A1.48,1.48,0,0,0,5.89,7.37v3.36a39.37,39.37,0,0,0,11.61,28L19,40.22a5.65,5.65,0,0,1,0,8L17.5,49.68a39.37,39.37,0,0,0-11.61,28v3.36a1.48,1.48,0,0,0,1.48,1.48H48.63a1.47,1.47,0,0,0,1.47-1.48V77.69a39.36,39.36,0,0,0-11.6-28L37,48.2a5.65,5.65,0,0,1,0-8Zm-3.56-.6a8.57,8.57,0,0,0,0,12.14l1.48,1.48A36.47,36.47,0,0,1,47.16,77.69v1.89H8.84V77.69A36.47,36.47,0,0,1,19.58,51.76l1.48-1.48a8.57,8.57,0,0,0,0-12.14l-1.48-1.48A36.47,36.47,0,0,1,8.84,10.73V8.84H47.16v1.89A36.47,36.47,0,0,1,36.42,36.66Z"/><path class="cls-1" d="M40.45,24.83a2.07,2.07,0,0,0-2.13-1.25c-7.66,0-11.07-1.64-12.43-2.62a6.28,6.28,0,0,0-5.79-.85,5.78,5.78,0,0,0-3.73,4,4.63,4.63,0,0,0-.15.81,1.52,1.52,0,0,0,.18.86,32.62,32.62,0,0,0,5.27,7.32l1.48,1.48a11.45,11.45,0,0,1,3.38,8.16,1.47,1.47,0,1,0,2.94,0,11.47,11.47,0,0,1,3.38-8.16l1.48-1.48c.37-.37.84-.81,1.36-1.3C39.5,28.22,41.11,26.47,40.45,24.83Zm-6.78,4.82c-.54.51-1,1-1.42,1.36L30.77,32.5A14.22,14.22,0,0,0,28,36.35a14.44,14.44,0,0,0-2.77-3.85L23.75,31a28.62,28.62,0,0,1-4.51-6.21,2.9,2.9,0,0,1,1.84-1.93,3.36,3.36,0,0,1,3.09.47c1.87,1.36,5.57,3,12.67,3.16C35.93,27.53,34.5,28.88,33.67,29.65Z"/><path class="cls-1" d="M44.11,75c-.37-4.77-2.29-6.76-4.5-9.06l-.93-1a9.89,9.89,0,0,0-7.18-3.12h-7A9.87,9.87,0,0,0,17.32,65l-.93,1c-2.21,2.3-4.13,4.29-4.5,9.06a1.47,1.47,0,0,0,1.47,1.59H42.64A1.47,1.47,0,0,0,44.11,75ZM15,73.68c.5-2.57,1.69-3.8,3.48-5.65l1-1a6.86,6.86,0,0,1,5-2.18h7a6.9,6.9,0,0,1,5,2.18l1,1c1.78,1.85,3,3.08,3.47,5.65Z"/><path class="cls-1" d="M28,47.16a1.47,1.47,0,0,0-1.48,1.47v1.48a1.48,1.48,0,0,0,2.95,0V48.63A1.47,1.47,0,0,0,28,47.16Z"/><path class="cls-1" d="M28,54.53A1.47,1.47,0,0,0,26.48,56v1.47a1.48,1.48,0,1,0,2.95,0V56A1.47,1.47,0,0,0,28,54.53Z"/></svg>