<svg id="Warstwa_1" data-name="Warstwa 1" xmlns="http://www.w3.org/2000/svg" viewBox="0 0 85 69.73"><defs><style>.cls-1{fill:#e91764;}</style></defs><title>miniswap</title><path class="cls-1" d="M42.5,56.45a1.66,1.66,0,1,0,1.66,1.66A1.66,1.66,0,0,0,42.5,56.45Z"/><path class="cls-1" d="M77.88,2.55A41.4,41.4,0,0,0,62.92,0,41.4,41.4,0,0,0,48,2.55a14.67,14.67,0,0,0-5.46,3.5A14.67,14.67,0,0,0,37,2.55,41.4,41.4,0,0,0,22.08,0a41.4,41.4,0,0,0-15,2.55C2.53,4.4,0,7,0,10V49.8c0,2.93,2.53,5.56,7.12,7.41a40.46,40.46,0,0,0,13.8,2.54v0c0,5.67,9.28,10,21.58,10s21.58-4.29,21.58-10v0a40.46,40.46,0,0,0,13.8-2.54C82.47,55.36,85,52.73,85,49.8V10C85,7,82.47,4.4,77.88,2.55Zm3.8,37.29c0,1.42-1.93,3.08-5,4.33a37.51,37.51,0,0,1-12.56,2.3V39.84h0a40.46,40.46,0,0,0,13.8-2.54,18,18,0,0,0,3.8-2v4.58ZM40.84,19.92c0,1.42-1.93,3.08-5,4.33a38.46,38.46,0,0,1-13.72,2.31A38.46,38.46,0,0,1,8.36,24.25c-3.11-1.25-5-2.91-5-4.33V15.34a18,18,0,0,0,3.8,2,41.19,41.19,0,0,0,15,2.55,41.19,41.19,0,0,0,15-2.55,18,18,0,0,0,3.8-2ZM7.12,27.33a41.19,41.19,0,0,0,15,2.55,41.19,41.19,0,0,0,15-2.55,18,18,0,0,0,3.8-2v4.61a40.41,40.41,0,0,0-11.75,2c-3.34,1.17-5.74,2.74-7,4.58A38.27,38.27,0,0,1,8.36,34.21c-3.11-1.25-5-2.91-5-4.33V25.3A18,18,0,0,0,7.12,27.33Zm-3.8,7.93a18,18,0,0,0,3.8,2,40.46,40.46,0,0,0,13.8,2.54h0v6.63a37.51,37.51,0,0,1-12.56-2.3c-3.11-1.25-5-2.91-5-4.33ZM24.41,39c1.23-2.87,8.34-5.83,18.09-5.83s16.86,3,18.08,5.82a2.06,2.06,0,0,1,.18.82c0,1.46-1.8,3.08-4.81,4.34a36.06,36.06,0,0,1-13.45,2.3,36.06,36.06,0,0,1-13.45-2.3c-3-1.26-4.81-2.88-4.81-4.34A2.14,2.14,0,0,1,24.41,39Zm57.27-9.15c0,1.42-1.93,3.08-5,4.33A38.23,38.23,0,0,1,63,36.52c-1.31-1.84-3.71-3.41-7.05-4.58a40.41,40.41,0,0,0-11.75-2V25.3a18,18,0,0,0,3.8,2,41.19,41.19,0,0,0,15,2.55,41.19,41.19,0,0,0,15-2.55,18,18,0,0,0,3.8-2Zm0-10c0,1.42-1.93,3.08-5,4.33a38.46,38.46,0,0,1-13.72,2.31A38.46,38.46,0,0,1,49.2,24.25c-3.11-1.25-5-2.91-5-4.33V15.34a18,18,0,0,0,3.8,2,41.19,41.19,0,0,0,15,2.55,41.19,41.19,0,0,0,15-2.55,18,18,0,0,0,3.8-2ZM49.2,5.63A38.46,38.46,0,0,1,62.92,3.32,38.46,38.46,0,0,1,76.64,5.63c3.11,1.25,5,2.91,5,4.33s-1.93,3.08-5,4.33A38.46,38.46,0,0,1,62.92,16.6,38.46,38.46,0,0,1,49.2,14.29c-3.11-1.25-5-2.91-5-4.33S46.09,6.88,49.2,5.63Zm-40.84,0A38.46,38.46,0,0,1,22.08,3.32,38.46,38.46,0,0,1,35.8,5.63c3.11,1.25,5,2.91,5,4.33s-1.93,3.08-5,4.33A38.46,38.46,0,0,1,22.08,16.6,38.46,38.46,0,0,1,8.36,14.29c-3.11-1.25-5-2.91-5-4.33S5.25,6.88,8.36,5.63Zm0,48.5c-3.11-1.25-5-2.91-5-4.33V45.22a18,18,0,0,0,3.8,2,40.46,40.46,0,0,0,13.8,2.54v6.64A37.51,37.51,0,0,1,8.36,54.13ZM56,64.1A36.05,36.05,0,0,1,42.5,66.41,36.05,36.05,0,0,1,29.05,64.1c-3-1.25-4.81-2.87-4.81-4.33V55.28c.37.27.79.54,1.25.81a29.25,29.25,0,0,0,10.14,3.19l.25,0A1.66,1.66,0,0,0,36.12,56c-7.72-1.13-11.88-4-11.88-6.19V45.3C28,48.05,34.63,49.8,42.5,49.8S57,48.05,60.76,45.3v4.5c0,2.16-4.16,5.06-11.88,6.19a1.66,1.66,0,0,0,.24,3.31l.25,0a29.25,29.25,0,0,0,10.14-3.19c.46-.27.88-.54,1.25-.81v4.49C60.76,61.23,59,62.85,56,64.1Zm20.69-10a37.51,37.51,0,0,1-12.56,2.3V49.79a40.46,40.46,0,0,0,13.8-2.54,18,18,0,0,0,3.8-2V49.8C81.68,51.22,79.75,52.88,76.64,54.13Z"/></svg>