<svg id="Warstwa_1" data-name="Warstwa 1" xmlns="http://www.w3.org/2000/svg" viewBox="0 0 84 74.2"><defs><style>.cls-1{fill:#e91764;}</style></defs><title>tokensholder</title><circle class="cls-1" cx="62.99" cy="37.79" r="2.8"/><path class="cls-1" d="M70,16.8H47.59a1.4,1.4,0,0,0,0,2.8h21v4.2a1.4,1.4,0,0,0,2.8,0V18.2A1.4,1.4,0,0,0,70,16.8Z"/><path class="cls-1" d="M28,56H14.17A5.77,5.77,0,0,1,8.4,50.22V44.79a1.4,1.4,0,0,0-2.8,0v5.43a8.57,8.57,0,0,0,8.57,8.57H28A1.4,1.4,0,1,0,28,56Z"/><path class="cls-1" d="M79.83,54.28A11.47,11.47,0,0,0,77,52.61V46.19h4.2a1.4,1.4,0,0,0,1.4-1.4v-14a1.4,1.4,0,0,0-1.4-1.4H77V12.6a1.39,1.39,0,0,0-1.39-1.4H70V7a1.4,1.4,0,0,0-1.4-1.4H57.39V1.4A1.4,1.4,0,0,0,56,0H7.12A7,7,0,0,0,2.25,2L2,2.25A6.86,6.86,0,0,0,.07,8.05,1.36,1.36,0,0,0,0,8.4v45a11,11,0,0,0,11,11H47.69a11.18,11.18,0,0,0,18.09,7.33,11.2,11.2,0,0,0,14-17.44Zm0-22.09v11.2H61.69a5.6,5.6,0,1,1,0-11.2ZM4,4.23,4.23,4A4.12,4.12,0,0,1,7.12,2.8H54.59V5.6H9.8a1.4,1.4,0,0,0,0,2.8H67.19v2.8H6.88A4.09,4.09,0,0,1,4,4.23Zm43.7,57.36H11A8.16,8.16,0,0,1,2.8,53.43h0V12.64A7,7,0,0,0,6.88,14H74.19V29.39H61.69a8.4,8.4,0,1,0,0,16.8h12.5v5.7a10.93,10.93,0,0,0-8.4,2.37,11.17,11.17,0,0,0-18.1,7.33Zm11.1,9.8a8.4,8.4,0,1,1,8.4-8.4A8.4,8.4,0,0,1,58.79,71.39Zm14,0a8.35,8.35,0,0,1-5.05-1.7,11.1,11.1,0,0,0,0-13.4,8.29,8.29,0,0,1,5.05-1.7,8.4,8.4,0,0,1,0,16.8Z"/></svg>