<svg id="Warstwa_1" data-name="Warstwa 1" xmlns="http://www.w3.org/2000/svg" viewBox="0 0 66 97.92"><defs><style>.cls-1{fill:#e91764;}</style></defs><title>trader</title><path class="cls-1" d="M64.57,79.34a1.43,1.43,0,0,0-1.44,1.43V94.26a.79.79,0,0,1-.79.79H54.63V66.8a1.44,1.44,0,0,0-2.87,0V95.05H36.23l4.51-5A2.58,2.58,0,0,0,41.36,88v0L37.06,62.65l1.16-1.73a3.27,3.27,0,0,0,2.05.89,2.52,2.52,0,0,0,2.25-1.39h0L47,51.35l10.31,4a10,10,0,0,1,5.78,9v9.7a1.44,1.44,0,0,0,2.87,0v-9.7a12.81,12.81,0,0,0-7.57-11.7h0L41.25,46V42a13.41,13.41,0,0,0,5.09-8.84A6.21,6.21,0,0,0,50,31.68a6.09,6.09,0,0,0,.63-8.59V17.78a17.78,17.78,0,1,0-35.55,0v5.45a5.74,5.74,0,0,0-1.48,3.84,6.06,6.06,0,0,0,2.11,4.61,6.21,6.21,0,0,0,3.65,1.49,13.27,13.27,0,0,0,5.38,9V46L7.6,52.67h0A12.8,12.8,0,0,0,0,64.37V94.26a3.67,3.67,0,0,0,3.66,3.66H17.33a1.44,1.44,0,0,0,0-2.87H14.24V66.8a1.44,1.44,0,0,0-2.87,0V95.05H3.66a.79.79,0,0,1-.79-.79V64.37a10,10,0,0,1,5.78-9l10.3-4,4.52,9.07a2.52,2.52,0,0,0,2.25,1.39,3.22,3.22,0,0,0,2.05-.89l1.16,1.73L24.64,88v0a2.62,2.62,0,0,0,.62,2.07l4.51,5H24a1.44,1.44,0,0,0,0,2.87H62.34A3.67,3.67,0,0,0,66,94.26V80.77A1.43,1.43,0,0,0,64.57,79.34Zm-20.22-29-4.21,8.45-5.07-3.6,5.21-6.43Zm-8.47,8.94-1.1,1.65H31.21l-1.1-1.65,2.88-2ZM27.6,46.5V43.81a14.57,14.57,0,0,0,5.42,1,13.4,13.4,0,0,0,5.36-1.12v2.79L33,53.16ZM49.23,27.07a3.21,3.21,0,0,1-1.11,2.44,3.38,3.38,0,0,1-1.66.76v-6.4A3.24,3.24,0,0,1,49.23,27.07Zm-30,3.2a3.24,3.24,0,0,1-2.77-3.2,3.4,3.4,0,0,1,2.77-3.13ZM19.31,21a6.39,6.39,0,0,0-1.37.31V17.78a14.91,14.91,0,1,1,29.81,0v3.45A6.14,6.14,0,0,0,46.46,21c0-1.39,0-1.12-4.52-6a2.54,2.54,0,0,0-3.25-.39A27.73,27.73,0,0,1,22,19.1,2.54,2.54,0,0,0,19.31,21ZM22.1,31.4V22A30.69,30.69,0,0,0,40,17.14c2.07,2.23,3.2,3.4,3.56,3.85V31.4a10.75,10.75,0,0,1-21.49,0Zm3.75,27.36-4.22-8.45,4.08-1.58,5.21,6.43ZM27.5,88.3l4.15-24.53h2.69L38.49,88.3l-5.5,6Z"/></svg>