<svg id="Warstwa_1" data-name="Warstwa 1" xmlns="http://www.w3.org/2000/svg" viewBox="0 0 30 30"><defs><style>.cls-1{fill:#fff;}.cls-2{fill:#2a2844;}.cls-3{fill:#bf068d;}.cls-4{fill:#545675;}</style></defs><title>ch</title><path class="cls-1" d="M27,5H15.11a.64.64,0,0,0-.2,0l-.15,0a.63.63,0,0,0-.4.79h0L20.65,24.2l-4.14,4.73a.62.62,0,0,0,.06.88A.61.61,0,0,0,17,30H27a3.13,3.13,0,0,0,3.13-3.12V8.09A3.13,3.13,0,0,0,27,5Z"/><path class="cls-2" d="M21.92,24.08a.61.61,0,0,0-.56-.37H15.11a.63.63,0,0,0-.63.63.57.57,0,0,0,0,.22l1.88,5a.61.61,0,0,0,.47.39H17a.64.64,0,0,0,.47-.21l4.38-5A.61.61,0,0,0,21.92,24.08Z"/><path class="cls-3" d="M21.12,20a.63.63,0,0,1,.2.46.62.62,0,0,1-.2.47.73.73,0,0,1-.5.18H16.77a.66.66,0,0,1-.5-.2.69.69,0,0,1-.2-.5V13.81a.68.68,0,0,1,.7-.7h3.85a.69.69,0,0,1,.5.19.66.66,0,0,1,.2.49.6.6,0,0,1-.2.46.71.71,0,0,1-.5.18H17.51v1.95H20.1a.68.68,0,0,1,.5.19.66.66,0,0,1,.2.49.61.61,0,0,1-.19.46.74.74,0,0,1-.51.18H17.51v2.12h3.11A.67.67,0,0,1,21.12,20Z"/><path class="cls-3" d="M29.18,13.29a.69.69,0,0,1,.17.46v6.69a.69.69,0,0,1-.2.5.65.65,0,0,1-.5.2.89.89,0,0,1-.32-.05.44.44,0,0,1-.22-.14L23.9,15.6v4.9a.62.62,0,0,1-.64.64.58.58,0,0,1-.45-.18.61.61,0,0,1-.17-.46V13.81a.66.66,0,0,1,.2-.5.69.69,0,0,1,.5-.2.78.78,0,0,1,.33.07.56.56,0,0,1,.25.18l4.18,5.33V13.75a.65.65,0,0,1,.18-.46.65.65,0,0,1,.9,0Z"/><path class="cls-4" d="M22,24.13,13.82.38A.63.63,0,0,0,13.23,0h-10A3.12,3.12,0,0,0,.11,3.09V21.84A3.12,3.12,0,0,0,3.23,25H21.36a.62.62,0,0,0,.62-.62A.76.76,0,0,0,22,24.13Z"/><path class="cls-1" d="M14,9.71H5.23a.63.63,0,0,1,0-1.25H14a.63.63,0,1,1,0,1.25Z"/><path class="cls-1" d="M9,9.71a.62.62,0,0,1-.62-.62V7.84a.63.63,0,1,1,1.25,0V9.09A.63.63,0,0,1,9,9.71Z"/><path class="cls-1" d="M7.11,17.21a.63.63,0,0,1-.63-.62.62.62,0,0,1,.26-.51c2.74-1.95,4.74-5.91,4.74-7a.63.63,0,1,1,1.25,0c0,1.64-2.41,6-5.26,8A.66.66,0,0,1,7.11,17.21Z"/><path class="cls-1" d="M12.11,18.46a.67.67,0,0,1-.43-.16c-.45-.42-4.44-4.11-5.15-5.85A.63.63,0,1,1,7.69,12c.51,1.26,3.67,4.32,4.84,5.39a.64.64,0,0,1,0,.89A.63.63,0,0,1,12.11,18.46Z"/></svg>