<svg id="Warstwa_1" data-name="Warstwa 1" xmlns="http://www.w3.org/2000/svg" viewBox="0 0 250.91 64.77"><defs><style>.cls-1{fill:#fff;}</style></defs><title>Logo2</title><path class="cls-1" d="M96.16,26.1l-14-13.81-.3-.26a11.86,11.86,0,0,0-16.59.13L49.84,27.64,34.36,12.16a11.84,11.84,0,0,0-16.42-.28,2.93,2.93,0,0,0-.52.41l-14,13.82a11.82,11.82,0,0,0,16.7,16.74l5.78-5.68L41.37,52.61a11.86,11.86,0,0,0,16.06.61,3.09,3.09,0,0,0,.88-.61L73.73,37.19l5.72,5.64A11.82,11.82,0,1,0,96.16,26.1ZM69.64,16.47a5.76,5.76,0,0,1,8.09,0,5.74,5.74,0,0,1,0,8.1L61.14,41.15a11.74,11.74,0,0,0-3-5.26L54.16,32Zm-53.78,22a5.73,5.73,0,0,1-8.09,0,5.73,5.73,0,0,1,0-8.08l6.85-6.78a11.7,11.7,0,0,0,3,5.23l4,4ZM45.69,48.3,22,24.56a5.72,5.72,0,0,1,8.09-8.09L53.78,40.21a5.76,5.76,0,0,1,0,8.09h0a5.76,5.76,0,0,1-8.09,0Zm46.17-9.79a5.73,5.73,0,0,1-8.11,0L78,32.88l4-4a11.67,11.67,0,0,0,3-5.18l6.8,6.72A5.73,5.73,0,0,1,91.86,38.51Z"/><path class="cls-1" d="M117.9,30.51a.77.77,0,0,0,.89-.89V17.85c0-3.4.94-4.46,4.43-4.46h6.89V29.62c0,.61.29.89.9.89h4c.61,0,.94-.28.94-.89V13.39h7.14c3.53,0,4.18,1.06,4.18,4.46V29.62a.77.77,0,0,0,.89.89h4a.77.77,0,0,0,.89-.89V16.47c0-5.88-2.31-8.23-9.62-8.23H122.65c-7.31,0-9.66,2.35-9.66,8.23V29.62c0,.61.32.89.93.89ZM161,5.68h4c.61,0,.89-.32.89-.93V.89A.77.77,0,0,0,165,0h-4c-.61,0-.93.28-.93.89V4.75A.83.83,0,0,0,161,5.68Zm4,2.56h-4c-.61,0-.89.32-.89.93V29.62a.77.77,0,0,0,.89.89h4a.77.77,0,0,0,.89-.89V9.17C165.87,8.56,165.59,8.24,165,8.24Zm8.88,22.27h4a.77.77,0,0,0,.89-.89V17.85c0-3.4.94-4.46,4.43-4.46H194c3.49,0,4.18,1.06,4.18,4.46V29.62a.77.77,0,0,0,.89.89h4a.77.77,0,0,0,.89-.89V16.47c0-5.88-2.35-8.23-9.66-8.23H182.59c-7.31,0-9.66,2.35-9.66,8.23V29.62C172.93,30.23,173.26,30.51,173.86,30.51Zm38-24.83h4c.61,0,.89-.32.89-.93V.89a.77.77,0,0,0-.89-.89h-4c-.61,0-.93.28-.93.89V4.75A.83.83,0,0,0,211.89,5.68Zm4,2.56h-4c-.61,0-.89.32-.89.93V29.62a.77.77,0,0,0,.89.89h4a.77.77,0,0,0,.89-.89V9.17C216.76,8.56,216.48,8.24,215.87,8.24ZM135,42.41H121.29c-1.66,0-2.23-.65-2.23-1.74v-.61c0-1.18.57-1.83,2.23-1.83H139.6a.65.65,0,0,0,.73-.73V34.25a.65.65,0,0,0-.73-.73H119.79c-4.79,0-6.37,2.19-6.37,5.56v1.79c0,3.57,1.79,5.48,6.33,5.48h13.64c1.66,0,2.27.65,2.27,1.7v1.1c0,1.38-.61,1.94-2.27,1.94H114.15a.65.65,0,0,0-.73.74v3.24a.64.64,0,0,0,.73.73h20.78c4.79,0,6.37-2.11,6.37-5.68V47.85C141.3,44.36,139.51,42.41,135,42.41Zm50.63-8.89H181c-.56,0-.85.25-.93.65l-5.27,16.68a.41.41,0,0,1-.41.29h-.16c-.25,0-.37-.09-.41-.29l-5.44-15.38c-.52-1.46-1.13-1.95-2.59-1.95H161c-1.46,0-2.07.49-2.6,1.95l-3.11,15.38c0,.2-.16.29-.41.29h-.16a.39.39,0,0,1-.4-.29l-5.24-16.68a.87.87,0,0,0-.93-.65h-4.59c-.73,0-.85.41-.69,1l6.09,18.79c.65,2,1.42,2.51,3.12,2.51h5.12c1.42,0,2-.61,2.72-2.51l2.94-14.82a.33.33,0,0,1,.37-.24h.24c.21,0,.33.08.37.24l5.35,14.82c.69,1.9,1.3,2.51,2.72,2.51H177c1.7,0,2.47-.48,3.12-2.51l6.17-18.79C186.45,33.93,186.29,33.52,185.6,33.52Zm21.76,0H189.83a.65.65,0,0,0-.73.73v3.41c0,.53.24.73.73.73h17c3.53,0,4.43,1,4.43,3.61v.78H194.7c-4.79,0-6.25,1.9-6.25,5.31V50c0,4,1.46,5.76,6.25,5.76H214c2.35,0,3-.61,3-3.24V41.76C217,35.88,214.67,33.52,207.36,33.52ZM211.22,50c0,1-.33,1.38-1.18,1.38H196.36c-1.66,0-2.27-.65-2.27-2.11v-.85c0-1.3.61-2,2.27-2h14.86Zm30-16.44H229.89c-7.31,0-9.66,2.36-9.66,8.24V63.88c0,.61.32.89.93.89h4a.77.77,0,0,0,.89-.89V55.8h15.22c7.3,0,9.66-2.31,9.66-8.2V41.76C250.91,35.88,248.55,33.52,241.25,33.52Zm3.89,12.95c0,3.45-.93,4.46-4.46,4.46H226V42.86c0-3.41.93-4.47,4.42-4.47h10.23c3.53,0,4.46,1.06,4.46,4.47Z"/></svg>